<svg width="24" height="23" viewBox="0 0 24 23" fill="none" xmlns="http://www.w3.org/2000/svg">
<g clip-path="url(#clip0_123_1881)">
<path d="M18.432 17.1C17.148 17.1 16.107 18.13 16.107 19.4C16.107 20.67 17.148 21.7 18.432 21.7C19.715 21.7 20.756 20.67 20.756 19.4C20.756 18.13 19.716 17.1 18.432 17.1ZM18.432 17.1H7.237C6.659 17.1 6.169 16.68 6.087 16.113L5.73 13.65M5.73 13.65H19.594L23.08 3.3H4.237M5.73 13.65L4.237 3.3M1 1H3.905L4.237 3.3M11.459 19.4C11.459 20.67 10.419 21.7 9.135 21.7C7.851 21.7 6.811 20.67 6.811 19.4C6.811 18.13 7.851 17.1 9.135 17.1C10.418 17.1 11.459 18.13 11.459 19.4Z" stroke="white" stroke-width="1.5" stroke-linecap="round" stroke-linejoin="round"/>
</g>
<defs>
<clipPath id="clip0_123_1881">
<rect width="24" height="23" fill="white"/>
</clipPath>
</defs>
</svg>
