<svg width="31" height="21" viewBox="0 0 31 21" fill="none" xmlns="http://www.w3.org/2000/svg">

<path d="M27.71 1.00892e-05H7.866C3.533 1.00892e-05 0 3.53301 0 7.86601V14.117C0.0013213 14.907 0.315677 15.6644 0.874221 16.2231C1.43276 16.7818 2.18997 17.0964 2.98 17.098H3.754C3.96192 17.9476 4.4489 18.7028 5.13695 19.2428C5.82501 19.7828 6.67436 20.0762 7.549 20.0762C8.42364 20.0762 9.27299 19.7828 9.96105 19.2428C10.6491 18.7028 11.1361 17.9476 11.344 17.098H19.554C19.7614 17.9483 20.2483 18.7042 20.9366 19.2448C21.6249 19.7853 22.4748 20.0791 23.35 20.079C24.2386 20.0776 25.1001 19.7733 25.7925 19.2162C26.4848 18.6592 26.9665 17.8827 27.158 17.015C29.284 16.601 30.898 14.725 30.898 12.489V3.18801C30.8991 2.76906 30.8173 2.35403 30.6575 1.96677C30.4976 1.57951 30.2629 1.22764 29.9666 0.9314C29.6704 0.635157 29.3185 0.400371 28.9312 0.240533C28.544 0.0806945 28.129 -0.00104521 27.71 1.00892e-05ZM29.063 3.18801V7.64501H21.21V1.85001H27.71C27.8871 1.84762 28.0629 1.88052 28.2272 1.94681C28.3915 2.01309 28.5409 2.11142 28.6667 2.23606C28.7926 2.36071 28.8923 2.50916 28.9602 2.67278C29.0281 2.83639 29.0627 3.01188 29.062 3.18901L29.063 3.18801ZM19.375 7.63001H11.523V1.83501H19.375V7.63001ZM7.866 1.83501H9.688V7.63101H7.825C6.307 7.63101 4.816 8.03101 3.505 8.80401L1.835 9.77001V7.86601C1.83685 6.26715 2.47289 4.73432 3.60355 3.60385C4.73421 2.47338 6.26714 1.8366 7.866 1.83501ZM9.619 16.187C9.619 17.333 8.694 18.257 7.549 18.257C7.27705 18.2574 7.0077 18.2041 6.75638 18.1002C6.50506 17.9964 6.2767 17.8439 6.08441 17.6516C5.89211 17.4593 5.73965 17.231 5.63577 16.9796C5.53188 16.7283 5.47861 16.459 5.479 16.187C5.479 15.042 6.403 14.117 7.549 14.117C8.694 14.117 9.619 15.042 9.619 16.187ZM23.349 18.244C23.0771 18.2444 22.8077 18.1911 22.5564 18.0872C22.3051 17.9834 22.0767 17.8309 21.8844 17.6386C21.6921 17.4463 21.5397 17.218 21.4358 16.9666C21.3319 16.7153 21.2786 16.446 21.279 16.174C21.279 15.028 22.204 14.104 23.349 14.104C24.495 14.104 25.419 15.028 25.419 16.174C25.419 17.319 24.495 18.244 23.349 18.244ZM27.103 15.139C26.8734 14.3193 26.3828 13.5969 25.7055 13.0813C25.0282 12.5657 24.2012 12.2851 23.35 12.282C22.4751 12.2821 21.6256 12.5758 20.9375 13.1162C20.2494 13.6565 19.7626 14.4121 19.555 15.262H11.344C11.1361 14.4124 10.6491 13.6572 9.96105 13.1172C9.27299 12.5773 8.42364 12.2838 7.549 12.2838C6.67436 12.2838 5.82501 12.5773 5.13695 13.1172C4.4489 13.6572 3.96192 14.4124 3.754 15.262H2.98C2.345 15.262 1.834 14.752 1.834 14.117V11.896L4.429 10.378C5.46197 9.78374 6.63229 9.4697 7.824 9.46701H29.062V12.489C29.0608 13.0821 28.8699 13.6592 28.5173 14.136C28.1646 14.6128 27.6687 14.9642 27.102 15.139H27.103Z" fill="white"/>
</svg>
