<svg width="24" height="25" viewBox="0 0 24 25" fill="none" xmlns="http://www.w3.org/2000/svg">
<g clip-path="url(#clip0_85_13)">
<path d="M23 10.47V21.294C23 22.788 21.769 24 20.25 24H3.75C2.231 24 1 22.788 1 21.294V10.471M16.125 5.059V3.706C16.125 2.21 14.894 1 13.375 1H10.625C9.106 1 7.875 2.211 7.875 3.706V5.059M12 13.176V18.588M3.75 15.882H20.25C21.769 15.882 23 14.671 23 13.177V7.765C23 6.27 21.769 5.059 20.25 5.059H3.75C2.231 5.059 1 6.27 1 7.765V13.177C1 14.671 2.231 15.882 3.75 15.882Z" stroke="white" stroke-width="1.8" stroke-linecap="round" stroke-linejoin="round"/>
</g>
<defs>
<clipPath id="clip0_85_13">
<rect width="24" height="25" fill="white"/>
</clipPath>
</defs>
</svg>
