<svg width="77" height="98" viewBox="0 0 77 98" fill="none" xmlns="http://www.w3.org/2000/svg">
<g clip-path="url(#clip0_321_545)">
<path fill-rule="evenodd" clip-rule="evenodd" d="M0 38.3578C0.020188 17.1848 17.1852 0.0213509 38.3567 1.03232e-06C59.5296 0.0225536 76.6935 17.1861 76.7135 38.3578C76.7135 65.4395 46.4248 92.8611 42.9715 95.9036C40.3304 98.2165 36.3832 98.2165 33.742 95.9036C30.2898 92.8625 0 65.4395 0 38.3578ZM38.3567 1.03232e-06C38.3571 6.83639e-07 38.3574 3.39534e-07 38.3578 0H38.3558C38.3561 3.40006e-07 38.3564 6.8414e-07 38.3567 1.03232e-06Z" fill="#194552"/>
<path d="M32.6763 41.8323C32.0639 41.8527 31.4514 41.9141 30.8431 41.9796C30.5572 42.0123 30.2714 42.0409 29.9856 42.0737C29.4426 42.131 28.8995 42.2128 28.3565 42.2946C27.7359 42.3887 27.1234 42.4992 26.5069 42.6179C25.4044 42.8307 24.3143 43.0884 23.2282 43.3789C20.9703 43.9886 18.7613 44.7415 16.6055 45.6417C16.4136 45.7235 16.2176 45.7972 16.0216 45.8708C15.9114 45.9117 15.797 45.9445 15.6827 45.9731C15.5153 46.014 15.3479 46.0058 15.1805 45.9649C14.9763 45.9117 14.7844 45.834 14.5966 45.744C13.9923 45.4657 13.388 45.1916 12.7878 44.9011C11.9426 44.4919 11.1015 44.0745 10.2564 43.6613C10.1747 43.6204 10.0971 43.5753 10.0195 43.5222C10.0032 43.514 9.99504 43.469 10.0032 43.4526C10.0359 43.3994 10.0767 43.3462 10.1216 43.2971C10.6157 42.7734 11.126 42.266 11.6609 41.7873C12.4653 41.0589 13.3145 40.3838 14.1842 39.7373C14.9478 39.1686 15.7195 38.608 16.4871 38.0392C17.369 37.3846 18.2265 36.7012 19.0512 35.9729C20.4354 34.7454 21.6807 33.391 22.8199 31.9344C23.5752 30.9646 24.2857 29.9622 24.9512 28.931C25.0206 28.8206 25.0982 28.7142 25.1676 28.6078C25.184 28.5832 25.2534 28.5751 25.2697 28.5996C25.3105 28.6487 25.3554 28.6978 25.3881 28.7551C25.5596 29.0333 25.727 29.3157 25.8944 29.5939C25.9475 29.6839 25.9965 29.778 26.0496 29.868C26.0822 29.9212 26.1557 29.9458 26.2211 29.9131C26.364 29.8476 26.5069 29.7821 26.6416 29.7044C26.9029 29.553 27.1356 29.3607 27.3602 29.1602C27.7604 28.8001 28.1238 28.4114 28.4708 27.9981C29.0629 27.2984 29.5977 26.5578 30.1122 25.8009C31.0431 24.426 31.8924 22.998 32.7008 21.5496C33.2275 20.6003 33.7338 19.6428 34.2197 18.6731C34.2483 18.6158 34.2769 18.5544 34.3055 18.4971C34.3586 18.3948 34.4198 18.3744 34.53 18.4398C34.628 18.5012 34.726 18.5708 34.8159 18.6444C34.9098 18.7181 34.9955 18.7999 35.0853 18.8695C35.1343 18.9063 35.1997 18.9308 35.2568 18.9595C35.2854 18.9718 35.3058 18.9636 35.3262 18.939C35.3875 18.8408 35.4569 18.7426 35.5141 18.6403C35.9754 17.8343 36.4327 17.0282 36.89 16.2221C37.0656 15.9152 37.2453 15.6125 37.429 15.3097C37.4902 15.2074 37.5597 15.1133 37.625 15.0192C37.6454 14.9905 37.7026 14.9946 37.7271 15.0273C37.772 15.0887 37.821 15.1542 37.8618 15.2196C38.1395 15.6452 38.4212 16.0707 38.6947 16.5004C39.3807 17.5683 40.0585 18.6403 40.7485 19.7001C41.7121 21.1813 42.737 22.6175 43.8475 23.9923C44.0027 24.1846 44.1579 24.3769 44.3212 24.5693C44.3702 24.6265 44.4355 24.6756 44.4927 24.7288C44.5172 24.8025 44.5662 24.8557 44.6274 24.8966C44.6642 24.9989 44.7417 25.0725 44.8111 25.1503C45.2113 25.6004 45.6033 26.0546 46.0116 26.4965C47.8979 28.5341 49.9517 30.3918 52.1116 32.1308C52.1729 32.1799 52.2341 32.229 52.2994 32.274C52.3566 32.3149 52.4179 32.3149 52.4873 32.2944C52.6138 32.2535 52.72 32.1758 52.8098 32.0817C52.9527 31.9303 53.0916 31.7707 53.2263 31.6152C53.3814 31.4393 53.5284 31.2551 53.6836 31.0792C53.7775 30.9728 53.8837 30.8705 54.0143 30.8091C54.047 30.7928 54.0919 30.7928 54.1246 30.801C54.1736 30.8173 54.2185 30.846 54.2593 30.8787C54.439 31.0301 54.6186 31.1815 54.7901 31.3411C54.9453 31.4802 55.0882 31.6316 55.2433 31.7748C55.3576 31.8812 55.4801 31.9794 55.6271 32.0408C55.672 32.0612 55.7415 32.0367 55.7619 31.9957C55.7782 31.9589 55.7945 31.9262 55.8109 31.8894C55.9129 31.607 56.015 31.3247 56.113 31.0383C56.2478 30.6414 56.3743 30.2445 56.505 29.8476C56.5662 29.8721 56.5989 29.9253 56.6356 29.9744C56.6642 30.0153 56.6969 30.0522 56.7295 30.089C56.75 30.1831 56.803 30.2568 56.8561 30.3304C57.097 30.6864 57.3665 31.026 57.6482 31.3533C58.3383 32.1594 59.0936 32.9 59.8735 33.6202C60.9677 34.6308 62.1069 35.5924 63.2624 36.5376C64.2342 37.3314 65.21 38.1211 66.1777 38.919C66.439 39.1358 66.684 39.3731 66.9372 39.6023C66.9657 39.6268 66.978 39.6637 66.9984 39.7005C67.0025 39.7087 66.9984 39.725 66.9902 39.7291C66.9821 39.7373 66.9657 39.7496 66.9576 39.7496C66.9086 39.7373 66.8555 39.725 66.8106 39.7046C66.4799 39.5532 66.1614 39.365 65.8511 39.1767C65.1814 38.7676 64.5322 38.3297 63.8871 37.8837C61.9681 36.5458 60.094 35.1464 58.2811 33.6652C58.0402 33.4688 57.7993 33.2642 57.5584 33.0637C57.5421 33.0514 57.5094 33.0596 57.4849 33.0596C57.4767 33.0596 57.4686 33.076 57.4645 33.0841C57.4604 33.0964 57.4604 33.1087 57.4563 33.121C57.4563 33.1332 57.4563 33.1455 57.4563 33.1619C57.5094 34.4672 57.7258 35.7356 58.2811 36.9304C58.3873 37.1554 58.4853 37.3846 58.5833 37.6096C58.6812 37.8387 58.767 38.072 58.8241 38.3134C58.8446 38.4034 58.8486 38.4934 58.8568 38.5834C58.8609 38.6407 58.816 38.6898 58.7629 38.6775C58.6241 38.6489 58.4812 38.6244 58.3423 38.5916C57.8197 38.4689 57.3216 38.2725 56.8357 38.0433C56.3008 37.7937 55.7945 37.5032 55.2964 37.1841C54.3369 36.5703 53.4386 35.8747 52.573 35.1382C51.2093 33.9761 49.9313 32.72 48.6982 31.4188C47.212 29.8517 45.7992 28.2232 44.4355 26.5497C42.1082 23.7018 39.9033 20.7639 37.8332 17.7279C37.7801 17.6542 37.723 17.5847 37.6658 17.511C37.6617 17.5069 37.6413 17.5151 37.6291 17.5192C37.5842 17.5438 37.6046 17.4865 37.6005 17.5356C37.5923 17.6133 37.5801 17.6911 37.576 17.7688C37.5597 18.5299 37.5515 19.2868 37.527 20.0479C37.5066 20.7026 37.4739 21.3572 37.4372 22.0078C37.4249 22.2288 37.3923 22.4497 37.3678 22.6707C37.3433 22.9039 37.2412 23.0962 37.0534 23.2353C36.939 23.3213 36.8165 23.399 36.6981 23.4768C36.5879 23.5504 36.4777 23.6159 36.3715 23.6936C36.2735 23.7632 36.2123 23.8614 36.1959 23.9882C36.1469 24.2992 36.0898 24.6061 36.0489 24.9171C35.9714 25.5267 35.9019 26.1364 35.8325 26.7501C35.7917 27.102 35.7631 27.4539 35.7264 27.8058C35.6855 28.1823 35.6447 28.5587 35.608 28.9392C35.5712 29.3034 35.5345 29.6676 35.4936 30.0317C35.4691 30.2404 35.4446 30.4491 35.4161 30.6537C35.4079 30.7232 35.3467 30.7682 35.2772 30.7519C34.9343 30.6782 34.5872 30.6046 34.2442 30.5227C33.84 30.4245 33.4317 30.3386 33.0152 30.2772C32.6763 30.224 32.3374 30.2199 31.9986 30.2363C31.8026 30.2445 31.6107 30.2977 31.4269 30.3631C30.9247 30.5432 30.6471 30.9114 30.5572 31.4311C30.5205 31.652 30.5123 31.873 30.5246 32.098C30.5491 32.5318 30.6348 32.9532 30.7451 33.3706C30.8186 33.6611 30.9084 33.9516 30.986 34.238C31.0962 34.6431 31.2636 35.0277 31.4678 35.3919C31.5903 35.6087 31.7127 35.8256 31.8311 36.0425C31.9006 36.1693 31.97 36.2921 31.9904 36.4394C31.9945 36.4721 31.9577 36.5171 31.921 36.513C31.8557 36.5048 31.7903 36.5048 31.7291 36.4844C31.5413 36.423 31.3698 36.3289 31.2024 36.2266C30.9165 36.0425 30.6144 35.887 30.3082 35.7438C28.773 35.0195 27.2377 34.3035 25.6984 33.5833C25.629 33.5506 25.5555 33.522 25.482 33.4974C25.4616 33.4892 25.4289 33.4974 25.4085 33.5097C25.3759 33.5301 25.3473 33.5588 25.3228 33.5874C24.4653 34.5735 23.563 35.5228 22.6811 36.4885C21.7909 37.4623 20.8968 38.4361 20.0148 39.4222C19.5371 39.9583 19.0757 40.5106 18.6143 41.063C18.4061 41.3126 18.2183 41.5827 18.0264 41.8486C17.9815 41.91 17.9406 41.9796 17.908 42.0532C17.8916 42.086 17.8753 42.1351 17.8876 42.1596C17.8998 42.1801 17.9529 42.1964 17.9856 42.1923C18.2305 42.1514 18.4755 42.1146 18.7164 42.0573C19.4636 41.8814 20.2149 41.6972 20.9621 41.5131C22.0278 41.2512 23.0975 41.0221 24.1754 40.8298C24.9349 40.6948 25.6943 40.5761 26.4579 40.4738C27.0254 40.3961 27.597 40.3429 28.1687 40.2856C28.6219 40.2406 29.0792 40.2038 29.5324 40.1669C29.61 40.1588 29.6876 40.1547 29.7651 40.1506C30.7287 40.1056 31.6964 40.0442 32.66 40.0483C32.7008 40.6334 32.7008 41.2349 32.6763 41.8323Z" fill="white"/>
<path d="M33 41.4343C33.0199 40.8387 33.0239 40.2432 33 39.6517C33.008 39.4977 33.0159 39.3397 33.0199 39.1857C33.0239 38.0068 33.0199 36.8278 33.0239 35.6448C33.0239 35.2599 33.004 35.2964 33.2864 35.0492C33.8314 34.5793 34.3764 34.1133 34.9214 33.6434C35.3669 33.2585 35.8124 32.8696 36.254 32.4806C36.978 31.8486 37.702 31.2125 38.422 30.5764C38.9033 30.151 39.3767 29.7216 39.858 29.2962C40.232 28.964 40.6099 28.6399 40.9918 28.3158C41.4811 27.8985 41.9783 27.4933 42.4358 27.0477C42.4994 26.9869 42.5591 26.9828 42.6387 27.0436C42.762 27.1368 42.8813 27.23 42.9967 27.3313C43.6133 27.8741 44.2299 28.417 44.8464 28.9599C45.1726 29.2476 45.5108 29.5271 45.8211 29.831C46.0398 30.0457 46.2865 30.2361 46.5172 30.4387C46.8434 30.7264 47.1736 31.014 47.4998 31.3017C48.3908 32.0957 49.2819 32.8858 50.173 33.6798C50.71 34.1579 51.251 34.6319 51.7841 35.11C52.1262 35.4179 52.0745 35.3328 52.0784 35.7704C52.0824 37.7556 52.0824 39.7367 52.0864 41.7219C52.0864 41.8759 52.0943 42.0339 52.0983 42.1878C52.0983 42.6659 52.0983 43.144 52.0983 43.6221C52.0943 43.7395 52.0864 43.853 52.0864 43.9705C52.0864 45.591 52.0864 47.2076 52.0904 48.8281C52.0904 48.9051 52.0904 48.9821 52.0904 49.0631C52.0904 49.0874 52.0983 49.1158 52.0983 49.1401C52.1023 49.1766 52.1461 49.209 52.1779 49.2049C52.5995 49.1158 53.0292 49.0388 53.4588 49.0145C54.0674 48.978 54.6761 48.9254 55.2887 48.9254C56.14 48.9254 56.9913 48.9456 57.8425 48.9821C58.4512 49.0105 59.0598 49.0712 59.6684 49.0915C59.7082 49.0915 59.744 49.0996 59.7838 49.1036C60.1776 49.1441 60.5675 49.1847 60.9613 49.2252C61.2915 49.2576 61.6216 49.2819 61.9478 49.3305C62.5525 49.4196 63.1571 49.4966 63.7578 49.606C64.4699 49.7357 65.1819 49.8815 65.8781 50.0841C65.9855 50.1165 66.1008 50.1368 66.2122 50.1611C66.2679 50.1854 66.3276 50.2056 66.3833 50.2299C66.5305 50.3029 66.6737 50.3758 66.8368 50.392L66.8288 50.3879C66.8567 50.4447 66.9203 50.4447 66.968 50.473C67.0038 50.5095 66.9999 50.4406 66.9999 50.4933C66.9999 50.5135 66.9879 50.5419 66.976 50.5459C66.9561 50.554 66.9243 50.554 66.9004 50.55C66.435 50.4852 65.9696 50.4163 65.5041 50.3515C65.2535 50.315 64.9989 50.2867 64.7483 50.2583C64.3823 50.2218 64.0164 50.1894 63.6464 50.157C63.1532 50.1124 62.6599 50.0719 62.1666 50.0314C62.1427 50.0274 62.1149 50.0274 62.091 50.0274C61.4705 49.999 60.8459 49.9544 60.2254 49.9463C59.1712 49.9342 58.113 49.9342 57.0589 49.9463C56.4502 49.9544 55.8376 49.9909 55.229 50.0314C54.6442 50.0679 54.0634 50.1205 53.4827 50.1813C52.9536 50.238 52.4245 50.315 51.8954 50.3839C51.0481 50.4892 50.2128 50.6391 49.3774 50.8052C48.4784 50.9835 47.5913 51.1982 46.7081 51.4454C45.5187 51.7776 44.3412 52.1503 43.1837 52.5838C42.1215 52.9809 41.0713 53.4144 40.0689 53.9491C39.9257 54.0261 39.7666 54.0869 39.6512 54.2125C39.6432 54.2165 39.6313 54.2206 39.6234 54.2287C39.6194 54.2327 39.6194 54.2408 39.6154 54.249C39.6233 54.2368 39.6353 54.2206 39.6432 54.2084C39.7069 54.2003 39.7705 54.2003 39.8302 54.176C39.9257 54.1396 40.0172 54.0909 40.1087 54.0464C40.8565 53.6534 41.6362 53.3414 42.4239 53.0416C43.1757 52.758 43.9315 52.4906 44.7032 52.2759C44.9737 52.1989 45.2442 52.1341 45.5187 52.0733C45.6301 52.049 45.7455 52.0531 45.8648 52.0409C45.8409 52.126 45.7733 52.1057 45.7296 52.1179C44.4487 52.5028 43.1956 52.9768 41.9823 53.544C40.4547 54.2571 38.9829 55.0795 37.5787 56.0235C37.2922 56.2179 37.0138 56.4205 36.7791 56.6839C36.5762 56.9107 36.3216 57.0039 36.0272 56.9999C35.6255 56.9918 35.2476 56.8986 34.9094 56.6677C34.7821 56.5785 34.6747 56.4691 34.5952 56.3314C34.4838 56.1329 34.44 55.9262 34.4997 55.6953C34.5594 55.4644 34.6628 55.2618 34.802 55.0714C35.0327 54.7594 35.3033 54.4839 35.5936 54.2327C36.0113 53.8722 36.4648 53.5602 36.9422 53.2888C37.2763 53.0983 37.6105 52.916 37.9446 52.7256C38.064 52.6567 38.1992 52.6041 38.2907 52.4866C38.3186 52.4339 38.3663 52.4258 38.414 52.4096C38.8357 52.2719 39.2415 52.0895 39.6512 51.9153C40.5781 51.5264 41.501 51.1294 42.4597 50.8295C43.2354 50.5865 44.015 50.3636 44.8067 50.1692C45.1886 50.076 45.5704 49.9868 45.9563 49.9058C46.2149 49.8532 46.4814 49.8207 46.744 49.7762C47.2054 49.6992 47.6748 49.6506 48.1283 49.5412C48.176 49.529 48.2238 49.5047 48.2675 49.4845C48.3948 49.4723 48.5221 49.4642 48.6454 49.448C48.9358 49.4156 49.2262 49.367 49.5166 49.3467C49.8269 49.3224 49.8229 49.3346 49.8269 49.0064C49.8269 48.9821 49.8269 48.9537 49.8269 48.9294C49.8388 46.0894 49.8189 43.2534 49.8508 40.4133C49.8667 39.1412 49.8547 37.8731 49.8547 36.6009C49.8547 36.4956 49.8547 36.3943 49.8547 36.289C49.8547 36.2079 49.8229 36.135 49.7672 36.0823C49.636 35.9608 49.5047 35.8352 49.3694 35.7177C48.9716 35.3733 48.5738 35.033 48.172 34.6927C47.3327 33.9797 46.4894 33.2666 45.65 32.5495C44.8902 31.9013 44.1304 31.249 43.3746 30.5967C43.1518 30.4063 42.9291 30.2078 42.7063 30.0174C42.6108 29.9363 42.5631 29.9323 42.4676 29.9971C42.1931 30.1875 41.9385 30.4063 41.6959 30.6291C40.9321 31.3341 40.1285 31.9944 39.3369 32.6629C38.78 33.1329 38.2191 33.6069 37.6662 34.0809C37.3042 34.3888 36.9541 34.7089 36.5961 35.0168C36.3256 35.2518 36.0471 35.4827 35.7766 35.7137C35.6215 35.8474 35.4703 35.9851 35.3152 36.1229C35.2515 36.3254 35.2794 36.5321 35.2595 36.7387C35.2436 36.8805 35.2396 37.0223 35.2356 37.1641C35.2197 38.8495 35.2078 40.5349 35.2356 42.2203C35.2396 42.5039 35.2595 42.7915 35.2595 43.0751C35.2674 44.3067 35.2714 45.5384 35.2714 46.77C35.2714 48.0422 35.2674 49.3103 35.2635 50.5824C35.2635 50.6999 35.2595 50.8174 35.2555 50.9308C35.2436 51.3319 35.2356 51.733 35.2237 52.1341C35.176 52.1746 35.1282 52.2232 35.0765 52.2516C34.4957 52.5433 33.9627 52.916 33.4256 53.2766C33.2983 53.3617 33.187 53.467 33.0398 53.5156C33 53.3617 33.0159 53.2077 33.0159 53.0497C33.0159 50.55 33.0159 48.0503 33.0199 45.5505C33.0199 44.3189 33.0199 43.0913 33.0199 41.8597C33.0159 41.7219 33.008 41.5761 33 41.4343Z" fill="white"/>
<path d="M56.8687 30C56.8371 29.9635 56.8054 29.927 56.7777 29.8864C56.742 29.8377 56.7104 29.781 56.651 29.7607C56.6272 29.6349 56.5995 29.5051 56.5837 29.3794C56.4966 28.5762 56.3145 27.8014 56.0374 27.0428C55.8513 26.5317 55.6217 26.0409 55.301 25.6028C54.7745 24.8726 54.1213 24.2885 53.3414 23.8585C52.4071 23.3393 51.4134 23.031 50.3485 22.9539C49.8892 22.9215 49.4419 22.9702 48.9866 23.0026C48.0285 23.1608 47.1299 23.4894 46.3025 24.0127C45.8907 24.2723 45.5028 24.5562 45.1306 24.8686C45.0713 24.828 45.0238 24.7753 45 24.7023C45.6255 23.9194 46.3698 23.2947 47.2526 22.8404C47.9573 22.4753 48.7016 22.24 49.4815 22.1102C49.8457 22.0493 50.2099 22.0412 50.5741 22.0007C52.0943 21.9804 53.4641 22.4185 54.6636 23.388C55.0635 23.7125 55.396 24.1019 55.7048 24.5116C56.3501 25.3756 56.7302 26.3492 56.8806 27.4201C56.9242 27.7406 56.9598 28.061 56.9637 28.3855C56.9637 28.4626 56.9756 28.5397 56.9835 28.6167C56.9875 28.6938 57.0033 28.7709 56.9994 28.848C56.9796 29.1563 56.9598 29.4686 56.936 29.7769C56.9241 29.858 56.9123 29.9351 56.8687 30Z" fill="white"/>
<path d="M41.9922 38.9884C41.9922 39.2713 41.9922 39.5581 41.9922 39.8411C41.9922 39.9457 41.9419 39.9922 41.8295 39.9961C41.7558 40 41.6822 40 41.6085 40C41.1744 40 40.7403 40 40.3101 40C40.2364 40 40.1628 40 40.0891 39.9845C40.0581 39.9806 40.031 39.9457 40.0116 39.9186C40 39.8992 40 39.8721 40 39.845C40 39.2868 40 38.7287 40 38.1744C40 38.1395 40.0078 38.1008 40.0194 38.0659C40.0271 38.0465 40.0504 38.0233 40.0698 38.0155C40.1047 38.0039 40.1434 38 40.1783 38C40.7248 38 41.2674 38 41.814 38C41.8256 38 41.8372 38 41.8527 38C41.938 38.0039 41.9961 38.0543 41.9961 38.1357C42 38.2597 42 38.3837 42 38.5078C41.9961 38.6667 41.9961 38.8256 41.9922 38.9884C41.9961 38.9884 41.9961 38.9884 41.9922 38.9884Z" fill="white"/>
<path d="M43.0039 40.9865C43.0039 40.7273 43.0039 40.4681 43.0039 40.2089C43.0039 40.1702 43.0116 40.1354 43.0155 40.0967C43.0194 40.0542 43.0698 40.0116 43.1163 40.0077C43.1667 40.0039 43.2132 40 43.2636 40C43.7597 40 44.2558 40 44.7519 40C44.814 40 44.876 40.0077 44.9341 40.0193C44.9535 40.0232 44.9729 40.0503 44.9845 40.0696C44.9961 40.089 45 40.1161 45 40.1431C45 40.7118 45 41.2805 45 41.8491C45 41.8723 44.9961 41.8994 44.9884 41.9226C44.9729 41.9536 44.9496 41.9845 44.907 41.9884C44.8566 41.9923 44.8101 42 44.7597 42C44.2519 42 43.7442 42 43.2364 42C43.186 42 43.1357 42 43.0891 41.9845C43.0581 41.9729 43.0233 41.942 43.0155 41.9149C43 41.8569 43 41.7911 43 41.7292C43 41.4778 43.0039 41.2302 43.0039 40.9865Z" fill="white"/>
<path d="M40.0077 40.9981C40.0077 40.7379 40.0077 40.4777 40.0077 40.2175C40.0077 40.1786 40.0116 40.1437 40.0154 40.1049C40.0193 40.0583 40.0656 40.0117 40.1081 40.0078C40.1467 40.0039 40.1815 40 40.2201 40C40.7375 40 41.2548 40 41.7761 40C41.8263 40 41.8764 40 41.9228 40.0194C41.9498 40.0311 41.9768 40.066 41.9884 40.0971C42 40.1282 42 40.1709 42 40.2058C42 40.7379 42 41.2738 42 41.8058C42 41.8447 42 41.8835 41.9846 41.9146C41.973 41.9456 41.9421 41.9689 41.9112 41.9884C41.8919 42 41.8649 42 41.8378 42C41.2819 42 40.7259 42 40.1737 42C40.1622 42 40.1506 42 40.1351 41.9961C40.0541 41.9922 40.0077 41.9417 40.0039 41.8485C40 41.7864 40 41.7243 40 41.6621C40.0077 41.4447 40.0077 41.2233 40.0077 40.9981Z" fill="white"/>
<path d="M44.0233 39.9971C43.7248 39.9971 43.4302 39.9971 43.1318 39.9971C43.0659 39.9971 43.0155 39.9468 43.0078 39.8849C43.0039 39.8462 43 39.8113 43 39.7726C43 39.254 43 38.7315 43 38.2129C43 38.1626 43.0078 38.1161 43.0194 38.0658C43.0233 38.0464 43.0504 38.0232 43.0698 38.0155C43.1047 38.0039 43.1434 38 43.1783 38C43.7248 38 44.2674 38 44.814 38C44.8372 38 44.8643 38.0039 44.8876 38.0077C44.9341 38.0116 44.9845 38.0581 44.9884 38.1006C44.9922 38.1355 45 38.1742 45 38.2129C45 38.7431 45 39.2772 45 39.8075C45 39.8462 45 39.8849 44.9884 39.9158C44.9729 39.9429 44.9419 39.9777 44.9109 39.9816C44.8372 39.9932 44.7636 39.9971 44.6899 39.9971C44.469 40.001 44.2481 40.001 44.0233 39.9971Z" fill="white"/>
</g>
<defs>
<clipPath id="clip0_321_545">
<rect width="77" height="98" fill="white"/>
</clipPath>
</defs>
</svg>
