<svg width="50" height="64" viewBox="0 0 50 64" fill="none" xmlns="http://www.w3.org/2000/svg">
<path fill-rule="evenodd" clip-rule="evenodd" d="M0 25.0007C0.013158 11.2006 11.2009 0.0139157 25 6.72268e-07C38.8 0.0146995 49.9869 11.2015 50 25.0007C50 42.6519 30.2586 60.5246 28.0078 62.5077C26.2864 64.0151 23.7137 64.0151 21.9922 62.5077C19.7422 60.5256 0 42.6519 0 25.0007ZM25 6.72268e-07C25.0002 4.45203e-07 25.0004 2.21114e-07 25.0007 0H24.9994C24.9996 2.21398e-07 24.9998 4.45554e-07 25 6.72268e-07Z" fill="#008000"/>
<g clip-path="url(#clip0_108_926)">
<path d="M37 23.47V34.294C37 35.788 35.769 37 34.25 37H17.75C16.231 37 15 35.788 15 34.294V23.471M30.125 18.059V16.706C30.125 15.21 28.894 14 27.375 14H24.625C23.106 14 21.875 15.211 21.875 16.706V18.059M26 26.176V31.588M17.75 28.882H34.25C35.769 28.882 37 27.671 37 26.177V20.765C37 19.27 35.769 18.059 34.25 18.059H17.75C16.231 18.059 15 19.27 15 20.765V26.177C15 27.671 16.231 28.882 17.75 28.882Z" stroke="white" stroke-width="1.8" stroke-linecap="round" stroke-linejoin="round"/>
</g>
<defs>
<clipPath id="clip0_108_926">
<rect width="23" height="24" fill="white" transform="translate(14 13)"/>
</clipPath>
</defs>
</svg>
