<svg width="50" height="64" viewBox="0 0 50 64" fill="none" xmlns="http://www.w3.org/2000/svg">
<path fill-rule="evenodd" clip-rule="evenodd" d="M0 25.0007C0.013158 11.2006 11.2009 0.0139157 25 6.72268e-07C38.8 0.0146995 49.9869 11.2015 50 25.0007C50 42.6519 30.2586 60.5246 28.0078 62.5077C26.2864 64.0151 23.7137 64.0151 21.9922 62.5077C19.7422 60.5256 0 42.6519 0 25.0007ZM25 6.72268e-07C25.0002 4.45203e-07 25.0004 2.21114e-07 25.0007 0H24.9994C24.9996 2.21398e-07 24.9998 4.45554e-07 25 6.72268e-07Z" fill="#E96200"/>
<g clip-path="url(#clip0_108_936)">
<path d="M37.71 13H17.866C13.533 13 10 16.533 10 20.866V27.117C10.0013 27.907 10.3157 28.6644 10.8742 29.2231C11.4328 29.7818 12.19 30.0964 12.98 30.098H13.754C13.9619 30.9476 14.4489 31.7028 15.137 32.2428C15.825 32.7828 16.6744 33.0762 17.549 33.0762C18.4236 33.0762 19.273 32.7828 19.961 32.2428C20.6491 31.7028 21.1361 30.9476 21.344 30.098H29.554C29.7614 30.9483 30.2483 31.7042 30.9366 32.2448C31.6249 32.7853 32.4748 33.0791 33.35 33.079C34.2386 33.0776 35.1001 32.7733 35.7925 32.2162C36.4848 31.6592 36.9665 30.8827 37.158 30.015C39.284 29.601 40.898 27.725 40.898 25.489V16.188C40.8991 15.7691 40.8173 15.354 40.6575 14.9668C40.4976 14.5795 40.2629 14.2276 39.9666 13.9314C39.6704 13.6352 39.3185 13.4004 38.9312 13.2405C38.544 13.0807 38.129 12.999 37.71 13ZM39.063 16.188V20.645H31.21V14.85H37.71C37.8871 14.8476 38.0629 14.8805 38.2272 14.9468C38.3915 15.0131 38.5409 15.1114 38.6667 15.2361C38.7926 15.3607 38.8923 15.5092 38.9602 15.6728C39.0281 15.8364 39.0627 16.0119 39.062 16.189L39.063 16.188ZM29.375 20.63H21.523V14.835H29.375V20.63ZM17.866 14.835H19.688V20.631H17.825C16.307 20.631 14.816 21.031 13.505 21.804L11.835 22.77V20.866C11.8369 19.2672 12.4729 17.7343 13.6035 16.6038C14.7342 15.4734 16.2671 14.8366 17.866 14.835ZM19.619 29.187C19.619 30.333 18.694 31.257 17.549 31.257C17.2771 31.2574 17.0077 31.2041 16.7564 31.1002C16.5051 30.9964 16.2767 30.8439 16.0844 30.6516C15.8921 30.4593 15.7397 30.231 15.6358 29.9796C15.5319 29.7283 15.4786 29.459 15.479 29.187C15.479 28.042 16.403 27.117 17.549 27.117C18.694 27.117 19.619 28.042 19.619 29.187ZM33.349 31.244C33.0771 31.2444 32.8077 31.1911 32.5564 31.0872C32.3051 30.9834 32.0767 30.8309 31.8844 30.6386C31.6921 30.4463 31.5397 30.218 31.4358 29.9666C31.3319 29.7153 31.2786 29.446 31.279 29.174C31.279 28.028 32.204 27.104 33.349 27.104C34.495 27.104 35.419 28.028 35.419 29.174C35.419 30.319 34.495 31.244 33.349 31.244ZM37.103 28.139C36.8734 27.3193 36.3828 26.5969 35.7055 26.0813C35.0282 25.5657 34.2012 25.2851 33.35 25.282C32.4751 25.2821 31.6256 25.5758 30.9375 26.1162C30.2494 26.6565 29.7626 27.4121 29.555 28.262H21.344C21.1361 27.4124 20.6491 26.6572 19.961 26.1172C19.273 25.5773 18.4236 25.2838 17.549 25.2838C16.6744 25.2838 15.825 25.5773 15.137 26.1172C14.4489 26.6572 13.9619 27.4124 13.754 28.262H12.98C12.345 28.262 11.834 27.752 11.834 27.117V24.896L14.429 23.378C15.462 22.7837 16.6323 22.4697 17.824 22.467H39.062V25.489C39.0608 26.0821 38.8699 26.6592 38.5173 27.136C38.1646 27.6128 37.6687 27.9642 37.102 28.139H37.103Z" fill="white"/>
</g>
<defs>
<clipPath id="clip0_108_936">
<rect width="31" height="21" fill="white" transform="translate(10 13)"/>
</clipPath>
</defs>
</svg>
