<svg width="50" height="64" viewBox="0 0 50 64" fill="none" xmlns="http://www.w3.org/2000/svg">
<path fill-rule="evenodd" clip-rule="evenodd" d="M0 25.0007C0.013158 11.2006 11.2009 0.0139157 25 6.72268e-07C38.8 0.0146995 49.9869 11.2015 50 25.0007C50 42.6519 30.2586 60.5246 28.0078 62.5077C26.2864 64.0151 23.7137 64.0151 21.9922 62.5077C19.7422 60.5256 0 42.6519 0 25.0007ZM25 6.72268e-07C25.0002 4.45203e-07 25.0004 2.21114e-07 25.0007 0H24.9994C24.9996 2.21398e-07 24.9998 4.45554e-07 25 6.72268e-07Z" fill="#49CBF2"/>
<g clip-path="url(#clip0_108_926)">
<path d="M29.231 19.195V16.598C29.2323 15.9105 28.9606 15.2506 28.4754 14.7634C27.9903 14.2762 27.3315 14.0016 26.644 14H24.056C23.3686 14.0019 22.7101 14.2765 22.2252 14.7637C21.7403 15.2509 21.4687 15.9106 21.47 16.598V19.195M25.351 23.092V32.183M20.823 27.638H29.879M17.588 36.08H33.112C33.4525 36.0793 33.7896 36.0116 34.1039 35.8807C34.4183 35.7498 34.7038 35.5582 34.9441 35.317C35.1844 35.0757 35.3748 34.7895 35.5045 34.4747C35.6342 34.1598 35.7007 33.8225 35.7 33.482V21.792C35.7011 21.1046 35.4292 20.445 34.9441 19.958C34.459 19.471 33.8004 19.1966 33.113 19.195H17.588C17.2475 19.1957 16.9104 19.2634 16.5961 19.3943C16.2817 19.5252 15.9963 19.7168 15.7559 19.958C15.5156 20.1993 15.3252 20.4855 15.1955 20.8003C15.0658 21.1152 14.9993 21.4525 15 21.793V33.483C14.9989 34.1704 15.2708 34.83 15.7559 35.317C16.241 35.804 16.8996 36.0784 17.587 36.08H17.588Z" stroke="white" stroke-width="1.5" stroke-linecap="round" stroke-linejoin="round"/>
</g>
<defs>
<clipPath id="clip0_108_926">
<rect width="23" height="24" fill="white" transform="translate(14 13)"/>
</clipPath>
</defs>
</svg>
