<svg width="50" height="64" viewBox="0 0 50 64" fill="none" xmlns="http://www.w3.org/2000/svg">
<path fill-rule="evenodd" clip-rule="evenodd" d="M0 25.0007C0.013158 11.2006 11.2009 0.0139157 25 6.72268e-07C38.8 0.0146995 49.9869 11.2015 50 25.0007C50 42.6519 30.2586 60.5246 28.0078 62.5077C26.2864 64.0151 23.7137 64.0151 21.9922 62.5077C19.7422 60.5256 0 42.6519 0 25.0007ZM25 6.72268e-07C25.0002 4.45203e-07 25.0004 2.21114e-07 25.0007 0H24.9994C24.9996 2.21398e-07 24.9998 4.45554e-07 25 6.72268e-07Z" fill="#E9B500"/>
<g clip-path="url(#clip0_108_950)">
<path d="M31.432 32.1C30.148 32.1 29.107 33.13 29.107 34.4C29.107 35.67 30.148 36.7 31.432 36.7C32.715 36.7 33.756 35.67 33.756 34.4C33.756 33.13 32.716 32.1 31.432 32.1ZM31.432 32.1H20.237C19.659 32.1 19.169 31.68 19.087 31.113L18.73 28.65M18.73 28.65H32.594L36.08 18.3H17.237M18.73 28.65L17.237 18.3M14 16H16.905L17.237 18.3M24.459 34.4C24.459 35.67 23.419 36.7 22.135 36.7C20.851 36.7 19.811 35.67 19.811 34.4C19.811 33.13 20.851 32.1 22.135 32.1C23.418 32.1 24.459 33.13 24.459 34.4Z" stroke="white" stroke-width="1.5" stroke-linecap="round" stroke-linejoin="round"/>
</g>
<defs>
<clipPath id="clip0_108_950">
<rect width="24" height="23" fill="white" transform="translate(13 15)"/>
</clipPath>
</defs>
</svg>
