<svg width="50" height="64" viewBox="0 0 50 64" fill="none" xmlns="http://www.w3.org/2000/svg">
<path fill-rule="evenodd" clip-rule="evenodd" d="M0 25.0007C0.013158 11.2006 11.2009 0.0139157 25 6.72268e-07C38.8 0.0146995 49.9869 11.2015 50 25.0007C50 42.6519 30.2586 60.5246 28.0078 62.5077C26.2864 64.0151 23.7137 64.0151 21.9922 62.5077C19.7422 60.5256 0 42.6519 0 25.0007ZM25 6.72268e-07C25.0002 4.45203e-07 25.0004 2.21114e-07 25.0007 0H24.9994C24.9996 2.21398e-07 24.9998 4.45554e-07 25 6.72268e-07Z" fill="#F2618B"/>
<g clip-path="url(#clip0_108_943)">
<path d="M20.111 27.444C20.111 27.444 21.944 29.888 25 29.888C28.056 29.888 29.889 27.444 29.889 27.444M21.333 21.333H21.346M28.666 21.333H28.679M36 24.999C36 31.075 31.075 35.999 25 35.999C18.925 35.999 14 31.076 14 25C14 18.924 18.925 14 25 14C31.075 14 36 18.925 36 25V24.999Z" stroke="white" stroke-width="1.8" stroke-linecap="round" stroke-linejoin="round"/>
</g>
<defs>
<clipPath id="clip0_108_943">
<rect width="24" height="24" fill="white" transform="translate(13 13)"/>
</clipPath>
</defs>
</svg>
