<svg width="23" height="24" viewBox="0 0 23 24" fill="none" xmlns="http://www.w3.org/2000/svg">
<path d="M15.231 6.195V3.598C15.2323 2.91047 14.9606 2.25055 14.4754 1.76336C13.9903 1.27617 13.3315 1.00159 12.644 1H10.056C9.36864 1.00185 8.71015 1.27655 8.22523 1.76371C7.74032 2.25087 7.46868 2.91064 7.47 3.598V6.195M11.351 10.092V19.183M6.823 14.638H15.879M3.588 23.08H19.112C19.4525 23.0793 19.7896 23.0116 20.1039 22.8807C20.4183 22.7498 20.7038 22.5582 20.9441 22.317C21.1844 22.0757 21.3748 21.7895 21.5045 21.4747C21.6342 21.1598 21.7007 20.8225 21.7 20.482V8.792C21.7011 8.10464 21.4292 7.44498 20.9441 6.95801C20.459 6.47103 19.8004 6.19659 19.113 6.195H3.588C3.24749 6.19566 2.91043 6.26338 2.59609 6.39429C2.28174 6.52521 1.99626 6.71676 1.75594 6.95801C1.51562 7.19925 1.32517 7.48547 1.19547 7.80032C1.06577 8.11517 0.999348 8.45248 1 8.793V20.483C0.998943 21.1704 1.27084 21.83 1.75594 22.317C2.24104 22.804 2.89964 23.0784 3.587 23.08H3.588Z" stroke="#FFF" stroke-width="1.5" stroke-linecap="round" stroke-linejoin="round"/>
</svg>
