<svg xmlns="http://www.w3.org/2000/svg" xmlns:xlink="http://www.w3.org/1999/xlink"><symbol viewBox="0 0 18 10" id="angle" xmlns="http://www.w3.org/2000/svg"><path d="M8.881 9.999a1.47 1.47 0 0 0 .966-.405l7.354-7.06A1.473 1.473 0 0 0 15.16.411L8.826 6.487 2.493.411a1.473 1.473 0 0 0-2.04 2.123l7.353 7.06A1.47 1.47 0 0 0 8.882 10Z"/></symbol><symbol viewBox="0 0 20 14" id="arrow-right" xmlns="http://www.w3.org/2000/svg"><path d="m19.72 7.713-5.517 5.862c-.374.336-1.09.475-1.508.087-.412-.383-.4-1.125.01-1.51l3.88-4.116H1.035a1.035 1.035 0 0 1 0-2.069h15.55l-3.88-4.116c-.353-.354-.418-1.122-.01-1.51.407-.386 1.15-.262 1.508.087l5.518 5.863c.39.483.353.944 0 1.422Z"/></symbol><symbol viewBox="0 0 24 23" id="basket" xmlns="http://www.w3.org/2000/svg"><g clip-path="url(#ca)"><path d="M18.432 17.1c-1.284 0-2.325 1.03-2.325 2.3 0 1.27 1.041 2.3 2.325 2.3 1.283 0 2.324-1.03 2.324-2.3 0-1.27-1.04-2.3-2.324-2.3Zm0 0H7.237c-.578 0-1.068-.42-1.15-.987L5.73 13.65m0 0h13.864L23.08 3.3H4.237M5.73 13.65 4.237 3.3M1 1h2.905l.332 2.3m7.222 16.1c0 1.27-1.04 2.3-2.324 2.3-1.284 0-2.324-1.03-2.324-2.3 0-1.27 1.04-2.3 2.324-2.3 1.283 0 2.324 1.03 2.324 2.3Z"/></g><defs><clipPath id="ca"><path d="M0 0h24v23H0z"/></clipPath></defs></symbol><symbol viewBox="0 0 31 21" id="car" xmlns="http://www.w3.org/2000/svg"><path d="M27.71 0H7.866C3.533 0 0 3.533 0 7.866v6.251a2.986 2.986 0 0 0 2.98 2.981h.774a3.907 3.907 0 0 0 7.59 0h8.21a3.907 3.907 0 0 0 3.796 2.981 3.906 3.906 0 0 0 3.808-3.064c2.126-.414 3.74-2.29 3.74-4.526V3.188A3.18 3.18 0 0 0 27.71 0Zm1.353 3.188v4.457H21.21V1.85h6.5a1.334 1.334 0 0 1 1.352 1.339l.001-.001ZM19.375 7.63h-7.852V1.835h7.852V7.63ZM7.866 1.835h1.822v5.796H7.825c-1.518 0-3.009.4-4.32 1.173l-1.67.966V7.866a6.037 6.037 0 0 1 6.031-6.031Zm1.753 14.352A2.067 2.067 0 0 1 6.756 18.1a2.065 2.065 0 0 1-1.277-1.913c0-1.145.924-2.07 2.07-2.07 1.145 0 2.07.925 2.07 2.07Zm13.73 2.057a2.067 2.067 0 0 1-2.07-2.07c0-1.146.925-2.07 2.07-2.07 1.146 0 2.07.924 2.07 2.07 0 1.145-.924 2.07-2.07 2.07Zm3.754-3.105a3.912 3.912 0 0 0-3.753-2.857 3.907 3.907 0 0 0-3.795 2.98h-8.211a3.907 3.907 0 0 0-7.59 0H2.98c-.635 0-1.146-.51-1.146-1.145v-2.221l2.595-1.518a6.84 6.84 0 0 1 3.395-.911h21.238v3.022a2.78 2.78 0 0 1-1.96 2.65h.001Z"/></symbol><symbol viewBox="0 0 37 26" id="checked" xmlns="http://www.w3.org/2000/svg"><path d="M36.287 4.152 15.128 25.288a2.437 2.437 0 0 1-3.442 0L.713 14.327a2.43 2.43 0 0 1 1.091-4.069 2.436 2.436 0 0 1 2.352.63l8.744 8.735a.716.716 0 0 0 1.013 0L32.843.713a2.436 2.436 0 0 1 4.074 1.09 2.43 2.43 0 0 1-.63 2.349Z"/></symbol><symbol viewBox="0 0 26 25" id="close" xmlns="http://www.w3.org/2000/svg"><path d="M.5 21.978 22.478 0 25.5 3.022 3.522 25z"/><path d="M25.5 21.978 3.522 0 .5 3.022 22.478 25z"/></symbol><symbol viewBox="0 0 50 70" id="download" xmlns="http://www.w3.org/2000/svg"><path d="M26.524 45.709v-18.58c0-.841-.685-1.526-1.526-1.526-.84 0-1.525.685-1.525 1.526v18.587l-4.994-4.994a1.523 1.523 0 0 0-2.16 0 1.523 1.523 0 0 0 0 2.159l7.595 7.604c.139.138.312.251.494.33a1.495 1.495 0 0 0 1.18 0c.19-.079.355-.191.494-.33l7.603-7.604a1.523 1.523 0 0 0 0-2.159 1.523 1.523 0 0 0-2.159 0l-5.002 4.986Z"/><path d="M50 67.834V17.523c0-.425-.174-.806-.45-1.084l-.009-.009L33.553.442A1.528 1.528 0 0 0 32.426 0h-30.9C.685 0 0 .686 0 1.526v66.298c0 .84.685 1.525 1.526 1.525h46.947a1.515 1.515 0 0 0 1.526-1.516H50ZM34.004 5.22l10.777 10.777H34.004V5.22ZM46.94 66.299H3.053V3.063h27.89v14.46c0 .842.686 1.526 1.526 1.526h14.47V66.3Z"/></symbol><symbol viewBox="0 0 24 25" id="education" xmlns="http://www.w3.org/2000/svg"><g clip-path="url(#ha)"><path d="M23 10.47v10.824C23 22.788 21.769 24 20.25 24H3.75C2.231 24 1 22.788 1 21.294V10.471m15.125-5.412V3.706C16.125 2.21 14.894 1 13.375 1h-2.75c-1.519 0-2.75 1.211-2.75 2.706v1.353M12 13.176v5.412m-8.25-2.706h16.5c1.519 0 2.75-1.211 2.75-2.705V7.765c0-1.495-1.231-2.706-2.75-2.706H3.75C2.231 5.059 1 6.27 1 7.765v5.412c0 1.494 1.231 2.705 2.75 2.705Z"/></g><defs><clipPath id="ha"><path d="M0 0h24v25H0z"/></clipPath></defs></symbol><symbol viewBox="0 0 24 24" id="leisure" xmlns="http://www.w3.org/2000/svg"><path d="M7.111 14.444S8.944 16.888 12 16.888s4.889-2.444 4.889-2.444M8.333 8.333h.013m7.32 0h.013M23 11.999c0 6.076-4.925 11-11 11S1 18.076 1 12C1 5.924 5.925 1 12 1s11 4.925 11 11v-.001Z"/></symbol><symbol viewBox="0 0 23 24" id="medicine" xmlns="http://www.w3.org/2000/svg"><path d="M15.231 6.195V3.598A2.593 2.593 0 0 0 12.644 1h-2.588A2.593 2.593 0 0 0 7.47 3.598v2.597m3.881 3.897v9.091m-4.528-4.545h9.056M3.588 23.08h15.524a2.594 2.594 0 0 0 2.588-2.598V8.792a2.593 2.593 0 0 0-2.587-2.597H3.588A2.593 2.593 0 0 0 1 8.793v11.69a2.593 2.593 0 0 0 2.587 2.597h.001Z"/></symbol><symbol viewBox="0 0 27 25" id="phone" xmlns="http://www.w3.org/2000/svg"><path d="M6.407 10.789c2.7 4.375 4.5 6.126 8.998 8.751l3.6-3.5c1.838.456 4.159 1.083 6.021 1.076.62-.005 1.239.599 1.256 1.175l-.042 5.462c-.002.604-.626 1.21-1.258 1.247C9.472 25.026.506 16.307.003 1.194-.048.61.575.004 1.196 0h6.15c.679-.026 1.297.576 1.445.943-.158 2.048.735 4.547 1.216 6.345l-3.6 3.5Z"/></symbol><symbol viewBox="0 0 15 18" id="play" xmlns="http://www.w3.org/2000/svg"><path d="M13.4 10.21c.841-.588.841-1.833 0-2.421L2.674.28C1.694-.406.348.295.348 1.491v15.017c0 1.196 1.346 1.897 2.326 1.212L13.4 10.21Z"/></symbol><symbol viewBox="0 0 24 20" id="telegram" xmlns="http://www.w3.org/2000/svg"><path fill-rule="evenodd" clip-rule="evenodd" d="M18.384 19.78a1.19 1.19 0 0 0 1.107.144 1.16 1.16 0 0 0 .724-.84C21.085 15 23.192 4.664 23.983.948a.78.78 0 0 0-.26-.758.8.8 0 0 0-.797-.14C18.733 1.602 5.82 6.447.542 8.4A.827.827 0 0 0 0 9.2c.012.353.25.66.593.763 2.367.708 5.474 1.693 5.474 1.693s1.452 4.385 2.21 6.615c.094.28.313.5.602.576a.866.866 0 0 0 .811-.207l3.096-2.923s3.572 2.62 5.598 4.062Zm-11.01-8.678 1.68 5.538.372-3.507 10.185-9.186a.277.277 0 0 0 .033-.377.284.284 0 0 0-.376-.064L7.374 11.102Z"/></symbol><symbol viewBox="0 0 22 22" id="watsapp" xmlns="http://www.w3.org/2000/svg"><path fill-rule="evenodd" clip-rule="evenodd" d="M18.795 3.197A10.91 10.91 0 0 0 11.046 0C5.008 0 .094 4.89.092 10.9c0 1.922.503 3.797 1.462 5.45L0 22l5.807-1.516c1.6.868 3.401 1.326 5.235 1.327h.004c6.037 0 10.951-4.89 10.954-10.902a10.81 10.81 0 0 0-3.205-7.712Zm-12.197 8.1C6.46 11.117 5.48 9.822 5.48 8.48c0-1.341.707-2 .958-2.273.25-.272.547-.34.73-.34.182 0 .365.001.525.01.168.008.393-.064.615.467.229.545.776 1.886.844 2.022.069.137.114.296.023.478-.091.181-.137.295-.273.454-.137.16-.288.355-.411.477-.137.136-.28.283-.12.556.16.273.709 1.165 1.522 1.887 1.046.928 1.928 1.216 2.201 1.352.274.136.434.114.593-.068.16-.182.685-.796.867-1.068.183-.273.365-.227.616-.136.25.09 1.596.75 1.87.886s.456.204.525.318c.068.114.068.659-.16 1.295-.228.636-1.322 1.217-1.848 1.295-.471.07-1.068.1-1.724-.108a15.772 15.772 0 0 1-1.56-.573c-2.745-1.18-4.538-3.932-4.675-4.114Z"/></symbol></svg>