<svg xmlns="http://www.w3.org/2000/svg" xmlns:xlink="http://www.w3.org/1999/xlink"><symbol viewBox="0 0 20 14" id="arrow-right" xmlns="http://www.w3.org/2000/svg"><path d="m19.72 7.713-5.517 5.862c-.374.336-1.09.475-1.508.087-.412-.383-.4-1.125.01-1.51l3.88-4.116H1.035a1.035 1.035 0 0 1 0-2.069h15.55l-3.88-4.116c-.353-.354-.418-1.122-.01-1.51.407-.386 1.15-.262 1.508.087l5.518 5.863c.39.483.353.944 0 1.422Z"/></symbol><symbol viewBox="0 0 26 25" id="close" xmlns="http://www.w3.org/2000/svg"><path d="M.5 21.978 22.478 0 25.5 3.022 3.522 25z"/><path d="M25.5 21.978 3.522 0 .5 3.022 22.478 25z"/></symbol><symbol viewBox="0 0 27 25" id="phone" xmlns="http://www.w3.org/2000/svg"><path d="M6.407 10.789c2.7 4.375 4.5 6.126 8.998 8.751l3.6-3.5c1.838.456 4.159 1.083 6.021 1.076.62-.005 1.239.599 1.256 1.175l-.042 5.462c-.002.604-.626 1.21-1.258 1.247C9.472 25.026.506 16.307.003 1.194-.048.61.575.004 1.196 0h6.15c.679-.026 1.297.576 1.445.943-.158 2.048.735 4.547 1.216 6.345l-3.6 3.5Z"/></symbol><symbol viewBox="0 0 15 18" id="play" xmlns="http://www.w3.org/2000/svg"><path d="M13.4 10.21c.841-.588.841-1.833 0-2.421L2.674.28C1.694-.406.348.295.348 1.491v15.017c0 1.196 1.346 1.897 2.326 1.212L13.4 10.21Z"/></symbol><symbol viewBox="0 0 24 20" id="telegram" xmlns="http://www.w3.org/2000/svg"><path fill-rule="evenodd" clip-rule="evenodd" d="M18.384 19.78a1.19 1.19 0 0 0 1.107.144 1.16 1.16 0 0 0 .724-.84C21.085 15 23.192 4.664 23.983.948a.78.78 0 0 0-.26-.758.8.8 0 0 0-.797-.14C18.733 1.602 5.82 6.447.542 8.4A.827.827 0 0 0 0 9.2c.012.353.25.66.593.763 2.367.708 5.474 1.693 5.474 1.693s1.452 4.385 2.21 6.615c.094.28.313.5.602.576a.866.866 0 0 0 .811-.207l3.096-2.923s3.572 2.62 5.598 4.062Zm-11.01-8.678 1.68 5.538.372-3.507 10.185-9.186a.277.277 0 0 0 .033-.377.284.284 0 0 0-.376-.064L7.374 11.102Z"/></symbol><symbol viewBox="0 0 22 22" id="watsapp" xmlns="http://www.w3.org/2000/svg"><path fill-rule="evenodd" clip-rule="evenodd" d="M18.795 3.197A10.91 10.91 0 0 0 11.046 0C5.008 0 .094 4.89.092 10.9c0 1.922.503 3.797 1.462 5.45L0 22l5.807-1.516c1.6.868 3.401 1.326 5.235 1.327h.004c6.037 0 10.951-4.89 10.954-10.902a10.81 10.81 0 0 0-3.205-7.712Zm-12.197 8.1C6.46 11.117 5.48 9.822 5.48 8.48c0-1.341.707-2 .958-2.273.25-.272.547-.34.73-.34.182 0 .365.001.525.01.168.008.393-.064.615.467.229.545.776 1.886.844 2.022.069.137.114.296.023.478-.091.181-.137.295-.273.454-.137.16-.288.355-.411.477-.137.136-.28.283-.12.556.16.273.709 1.165 1.522 1.887 1.046.928 1.928 1.216 2.201 1.352.274.136.434.114.593-.068.16-.182.685-.796.867-1.068.183-.273.365-.227.616-.136.25.09 1.596.75 1.87.886s.456.204.525.318c.068.114.068.659-.16 1.295-.228.636-1.322 1.217-1.848 1.295-.471.07-1.068.1-1.724-.108a15.772 15.772 0 0 1-1.56-.573c-2.745-1.18-4.538-3.932-4.675-4.114Z"/></symbol></svg>