<svg class="s-footer__logo-img" width="579" height="66" viewBox="0 0 579 66" fill="none" xmlns="http://www.w3.org/2000/svg">
<path d="M51.8685 64.9496H41.125V48.6684L31.4381 37.7268L13.0332 64.9496H0L24.3051 29.7613L1.23287 3.67639H14.178L41.125 35.5385V3.67639H51.8685V35.5385L78.8155 3.67639H91.7606L68.6003 29.7613L92.9935 64.9496H79.9603L61.5553 37.7268L51.8685 48.6684V64.9496Z" fill="white"/>
<path d="M99.2404 64.9496V18.7321H109.632V49.7188C119.377 35.947 126.716 25.618 131.647 18.7321H141.686V64.9496H131.383V34.1379L109.279 64.9496H99.2404Z" fill="white"/>
<path d="M153.292 64.9496V18.7321H177.157C181.795 18.7321 185.493 19.7825 188.252 21.8833C191.07 23.9257 192.479 26.7268 192.479 30.2865C192.479 35.13 189.984 38.6605 184.994 40.878C191.393 42.687 194.593 46.5385 194.593 52.4324C194.593 56.3422 193.037 59.4058 189.926 61.6233C186.873 63.8409 182.705 64.9496 177.421 64.9496H153.292ZM163.771 56.5464H175.836C178.36 56.5464 180.298 56.0212 181.648 54.9708C183.057 53.8621 183.761 52.4032 183.761 50.5942C183.761 48.8435 183.027 47.4722 181.56 46.4801C180.151 45.4881 178.067 44.992 175.307 44.992H163.771V56.5464ZM163.771 37.8143H174.691C176.863 37.8143 178.566 37.2891 179.799 36.2387C181.031 35.1883 181.648 33.817 181.648 32.1247C181.648 30.5491 181.09 29.2944 179.975 28.3607C178.859 27.3687 177.157 26.8727 174.867 26.8727H163.771V37.8143Z" fill="white"/>
<path d="M225.577 66C218.532 66 212.661 63.6658 207.965 58.9973C203.268 54.3289 200.92 48.6393 200.92 41.9284C200.92 35.2175 203.297 29.5279 208.053 24.8594C212.808 20.1326 218.708 17.7692 225.753 17.7692C232.798 17.7692 238.669 20.1035 243.365 24.7719C248.121 29.4403 250.499 35.1592 250.499 41.9284C250.499 48.5809 248.121 54.2706 243.365 58.9973C238.61 63.6658 232.681 66 225.577 66ZM225.753 56.809C229.98 56.809 233.385 55.3793 235.968 52.5199C238.551 49.6605 239.843 46.13 239.843 41.9284C239.843 37.7851 238.493 34.2838 235.792 31.4244C233.092 28.5066 229.687 27.0477 225.577 27.0477C221.409 27.0477 218.033 28.4775 215.45 31.3369C212.867 34.1963 211.575 37.7268 211.575 41.9284C211.575 46.0133 212.925 49.5146 215.626 52.4324C218.327 55.3501 221.702 56.809 225.753 56.809Z" fill="white"/>
<path d="M259.589 64.9496V18.7321H301.066V64.9496H290.411V27.8355H270.244V64.9496H259.589Z" fill="white"/>
<path d="M312.694 64.9496V18.7321H323.086V49.7188C332.831 35.947 340.17 25.618 345.101 18.7321H355.14V64.9496H344.837V34.1379L322.733 64.9496H312.694Z" fill="white"/>
<path d="M388.233 66C381.364 66 375.64 63.695 371.061 59.0849C366.482 54.4165 364.192 48.756 364.192 42.1035V41.9284C364.192 35.2759 366.482 29.5862 371.061 24.8594C375.699 20.1326 381.452 17.7692 388.321 17.7692C395.836 17.7692 402.029 20.4244 406.902 25.7348L400.297 32.8249C396.599 28.9735 392.577 27.0477 388.233 27.0477C384.417 27.0477 381.217 28.4775 378.634 31.3369C376.11 34.1963 374.848 37.6684 374.848 41.7533V41.9284C374.848 46.13 376.139 49.6605 378.722 52.5199C381.364 55.3793 384.71 56.809 388.761 56.809C393.047 56.809 397.068 54.8833 400.826 51.0318L407.254 57.3342C404.73 60.1353 401.971 62.2944 398.977 63.8117C396.041 65.2706 392.46 66 388.233 66Z" fill="white"/>
<path d="M414.863 64.9496V18.7321H425.519V37.4642H446.037V18.7321H456.693V64.9496H446.037V46.305H425.519V64.9496H414.863Z" fill="white"/>
<path d="M468.313 64.9496V18.7321H478.968V34.9257H488.743C494.262 34.9257 498.724 36.1512 502.129 38.6021C505.534 41.0531 507.236 44.7003 507.236 49.5438C507.236 54.3289 505.651 58.0928 502.481 60.8355C499.311 63.5783 494.996 64.9496 489.536 64.9496H468.313ZM478.968 56.3714H488.127C490.827 56.3714 492.912 55.7878 494.379 54.6207C495.847 53.4536 496.581 51.7613 496.581 49.5438C496.581 47.5013 495.818 45.9257 494.291 44.817C492.824 43.7082 490.71 43.1539 487.951 43.1539H478.968V56.3714ZM514.281 64.9496V18.7321H524.937V64.9496H514.281Z" fill="white"/>
<path d="M567.024 10.1538C564.617 12.313 561.564 13.3926 557.865 13.3926C554.167 13.3926 551.084 12.313 548.619 10.1538C546.153 7.93634 544.626 4.96021 544.039 1.22546L550.556 0C551.789 3.96817 554.225 5.95226 557.865 5.95226C561.505 5.95226 563.941 3.96817 565.174 0L571.603 1.22546C571.016 4.96021 569.489 7.93634 567.024 10.1538ZM536.554 64.9496V18.7321H546.945V49.7188C556.691 35.947 564.029 25.618 568.961 18.7321H579V64.9496H568.697V34.1379L546.593 64.9496H536.554Z" fill="white"/>
</svg>
